 <svg version="1.0" xmlns="http://www.w3.org/2000/svg" width="700.000000pt" height="700.000000pt" viewBox="0 0 700.000000 700.000000" preserveAspectRatio="xMidYMid meet">
<metadata>
Created by potrace 1.12, written by Peter Selinger 2001-2015
</metadata>
<g transform="translate(0.000000,700.000000) scale(0.100000,-0.100000)" fill="#000000" stroke="none">
<path d="M1245 6970 c-224 -42 -393 -110 -585 -238 -106 -70 -282 -240 -366
-352 -78 -105 -173 -285 -214 -409 -52 -156 -87 -371 -60 -371 6 0 10 1 10 3
0 1 9 54 20 119 55 326 183 573 419 808 200 200 396 314 656 385 100 27 278
55 349 55 25 0 46 5 46 10 0 16 -166 10 -275 -10z"></path>
<path d="M5610 6981 c0 -5 33 -14 73 -21 351 -55 630 -199 869 -448 204 -213
332 -463 390 -767 21 -107 22 -139 25 -1172 3 -693 7 -1063 14 -1063 6 0 9
379 6 1102 l-3 1103 -26 105 c-36 146 -70 236 -139 370 -77 148 -161 260 -290
385 -213 206 -460 336 -746 394 -108 22 -173 27 -173 12z"></path>
<path d="M1855 5534 c-22 -2 -110 -8 -195 -14 -431 -30 -576 -69 -711 -190
-136 -121 -181 -296 -114 -436 30 -61 113 -142 181 -177 142 -72 339 -111 554
-110 178 0 230 10 259 52 19 26 28 30 101 36 94 8 127 27 117 67 -9 36 -27 40
-123 28 -79 -10 -86 -9 -114 11 -28 21 -36 22 -153 15 -321 -17 -613 70 -644
192 -16 64 52 164 145 215 71 39 152 55 382 76 435 41 686 38 913 -14 337 -76
584 -260 726 -542 117 -233 132 -605 34 -877 -99 -276 -445 -840 -743 -1210
-134 -167 -318 -376 -331 -376 -6 0 -48 30 -95 68 -195 155 -426 268 -614 299
-91 15 -108 15 -192 1 -118 -20 -188 -47 -280 -107 -342 -224 -421 -650 -167
-904 117 -117 260 -170 464 -171 250 -1 344 48 728 377 l159 136 91 -80 c114
-99 218 -170 294 -200 49 -19 83 -23 218 -27 264 -7 315 15 525 228 69 70 144
137 165 148 242 122 628 80 899 -98 156 -102 287 -173 451 -243 317 -136 474
-177 720 -184 193 -7 279 6 374 53 109 54 218 179 255 292 56 168 30 426 -62
607 -86 171 -279 369 -566 580 -44 32 -228 157 -410 279 -290 192 -344 232
-432 320 -203 201 -331 459 -365 734 -25 197 18 333 144 456 218 215 611 297
1501 313 357 6 358 6 386 30 25 20 38 23 122 23 99 0 118 7 118 46 0 34 -18
41 -115 49 -73 6 -95 12 -118 31 -15 13 -44 26 -65 30 -56 11 -650 -4 -870
-21 -622 -49 -963 -168 -1159 -404 -112 -135 -157 -270 -156 -466 1 -277 99
-553 288 -810 130 -177 214 -246 615 -512 583 -386 792 -567 891 -768 54 -111
73 -190 73 -310 0 -89 -3 -107 -28 -162 -32 -69 -94 -135 -154 -161 -57 -25
-304 -29 -435 -7 -239 40 -596 189 -852 356 -135 89 -220 129 -356 168 -268
78 -480 80 -691 5 -116 -41 -154 -68 -308 -219 -80 -78 -159 -150 -177 -159
-25 -12 -62 -16 -170 -16 -76 0 -154 5 -174 10 -19 5 -63 29 -96 52 -80 56
-212 170 -212 184 -1 6 41 58 92 115 353 397 692 887 911 1319 139 274 179
429 179 700 0 324 -68 543 -240 771 -221 293 -550 457 -1003 498 -106 10 -288
12 -385 5z m375 -24 c388 -34 670 -151 890 -370 235 -234 342 -509 343 -880 0
-321 -80 -553 -343 -990 -365 -606 -761 -1088 -1187 -1442 -358 -300 -445
-343 -678 -341 -193 2 -340 56 -451 167 -96 96 -144 210 -144 341 0 276 219
542 511 621 99 26 242 22 354 -10 160 -47 351 -149 493 -264 35 -28 73 -57 85
-66 l22 -15 -40 -36 c-22 -20 -52 -47 -66 -59 l-25 -23 -45 41 c-158 142 -423
270 -589 283 -129 10 -266 -40 -373 -136 -182 -164 -210 -439 -60 -572 46 -40
137 -84 201 -98 72 -15 206 -14 268 3 109 29 191 85 480 332 296 252 647 662
919 1074 287 433 435 728 487 965 20 92 16 379 -6 485 -38 184 -126 348 -258
486 -240 250 -584 358 -1088 340 -376 -12 -654 -46 -755 -91 -103 -45 -184
-144 -185 -223 0 -95 110 -167 325 -213 87 -19 122 -20 433 -16 46 1 63 -19
28 -32 -33 -13 -42 -35 -28 -67 8 -16 20 -24 38 -24 38 0 25 -22 -22 -38 -59
-20 -316 -19 -438 3 -186 32 -315 85 -398 163 -117 109 -136 258 -51 399 45
75 74 105 154 159 108 72 187 93 444 119 331 33 571 41 755 25z m4059 -171
c35 -12 42 -29 11 -29 -10 0 -24 -10 -31 -21 -15 -29 3 -69 31 -69 11 0 20 -4
20 -10 0 -24 -49 -30 -268 -30 -528 0 -955 -40 -1242 -116 -296 -78 -492 -255
-531 -478 -41 -238 73 -593 272 -841 113 -141 189 -202 534 -429 415 -273 575
-393 739 -554 153 -150 247 -297 292 -458 25 -91 31 -316 9 -390 -55 -192
-199 -327 -383 -360 -94 -16 -246 -18 -367 -3 -276 34 -705 203 -997 394 -126
83 -153 96 -270 134 -249 79 -460 80 -647 3 -56 -23 -83 -46 -205 -168 -160
-160 -215 -197 -320 -215 -94 -16 -334 -6 -396 16 -25 9 -81 41 -125 70 -91
61 -249 192 -252 209 0 6 25 35 57 65 l59 53 68 -61 c86 -76 166 -137 216
-163 76 -38 332 -45 402 -10 17 8 95 80 174 159 126 125 155 149 225 183 138
68 215 84 406 84 152 -1 174 -3 280 -31 175 -47 267 -86 402 -174 162 -106
253 -155 428 -229 297 -127 438 -160 676 -160 183 0 232 12 301 74 99 89 136
208 114 369 -29 219 -120 370 -337 558 -149 130 -287 230 -639 464 -176 117
-355 242 -397 278 -406 349 -607 985 -424 1345 93 184 302 343 546 416 300 89
688 128 1321 134 136 1 228 -2 248 -9z m254 -68 c5 -5 7 -17 3 -27 -6 -15 -19
-16 -129 -10 -67 4 -126 11 -131 16 -5 5 -6 16 -2 26 6 15 19 16 128 11 67 -3
126 -11 131 -16z m-4517 -506 c11 -29 -15 -42 -93 -49 -43 -3 -97 -9 -120 -12
-35 -5 -44 -3 -49 10 -11 29 10 38 113 51 134 17 143 17 149 0z m-570 -2335
c135 -34 329 -138 466 -249 31 -25 57 -51 57 -57 1 -17 -358 -322 -431 -366
-87 -54 -162 -79 -249 -85 -189 -14 -356 59 -419 183 -21 42 -25 62 -25 144 0
88 3 101 34 165 61 125 192 232 331 271 67 18 147 16 236 -6z"></path>
<path d="M1735 5454 c-16 -2 -79 -13 -140 -24 -127 -23 -392 -44 -429 -34 -15
3 -26 2 -26 -4 0 -5 11 -13 25 -16 39 -10 328 13 440 35 140 28 278 33 505 20
214 -12 286 -25 520 -93 168 -50 240 -65 240 -51 0 5 -44 20 -97 33 -54 12
-153 40 -220 61 -67 21 -168 45 -225 53 -99 15 -531 29 -593 20z"></path>
<path d="M1051 4864 c69 -83 295 -140 524 -132 71 2 130 9 136 15 7 7 -27 9
-123 5 -204 -7 -378 27 -487 98 -53 33 -70 38 -50 14z"></path>
<path d="M1205 2550 c-79 -15 -245 -63 -245 -72 0 -12 11 -10 118 18 53 15
115 30 137 35 50 10 200 -5 372 -37 148 -27 153 -27 153 -15 0 4 -51 18 -112
29 -217 41 -356 55 -423 42z"></path>
<path d="M5905 5308 c-195 -11 -512 -45 -645 -68 -385 -67 -472 -84 -604 -115
-82 -19 -151 -37 -154 -40 -16 -16 17 -13 114 10 387 92 878 167 1209 185 202
11 255 18 255 31 0 5 -6 8 -12 7 -7 -1 -80 -5 -163 -10z"></path>
<path d="M4990 3327 c0 -14 86 -79 285 -217 296 -206 553 -443 713 -660 31
-41 57 -69 59 -63 3 7 -21 47 -52 89 -157 212 -457 485 -740 674 -44 29 -122
84 -172 122 -51 37 -93 62 -93 55z"></path>
<path d="M3612 2239 c-68 -10 -342 -107 -342 -121 0 -12 39 -1 142 39 131 50
192 63 318 69 103 5 131 3 260 -24 167 -35 270 -49 270 -36 0 5 -60 20 -132
32 -73 12 -162 29 -198 37 -71 16 -220 18 -318 4z"></path>
<path d="M6970 3035 c0 -8 5 -15 10 -15 6 0 10 7 10 15 0 8 -4 15 -10 15 -5 0
-10 -7 -10 -15z"></path>
<path d="M10 2945 c0 -8 5 -15 10 -15 6 0 10 7 10 15 0 8 -4 15 -10 15 -5 0
-10 -7 -10 -15z"></path>
<path d="M10 2735 c0 -25 5 -45 10 -45 6 0 10 20 10 45 0 25 -4 45 -10 45 -5
0 -10 -20 -10 -45z"></path>
<path d="M6970 2660 c0 -73 4 -120 10 -120 6 0 10 47 10 120 0 73 -4 120 -10
120 -6 0 -10 -47 -10 -120z"></path>
<path d="M13 1963 c4 -754 1 -722 68 -925 169 -519 623 -918 1149 -1012 133
-23 180 -26 180 -10 0 15 -36 26 -163 49 -169 30 -352 99 -492 185 -302 185
-524 463 -635 799 -77 229 -89 386 -90 1104 0 340 -3 497 -11 497 -7 0 -9
-211 -6 -687z"></path>
<path d="M6965 1418 c-3 -13 -14 -75 -25 -139 -37 -220 -108 -400 -231 -584
-139 -208 -339 -383 -564 -494 -257 -127 -494 -171 -926 -171 -150 0 -219 -3
-219 -11 0 -7 110 -9 368 -7 l367 4 115 31 c141 38 251 80 352 136 401 220
678 593 767 1034 22 107 28 223 11 223 -5 0 -12 -10 -15 -22z"></path>
</g>
</svg>